<?xml version="1.0" encoding="utf-8"?>
<!-- Svg Vector Icons : http://www.onlinewebfonts.com/icon -->
<!DOCTYPE svg PUBLIC "-//W3C//DTD SVG 1.1//EN" "http://www.w3.org/Graphics/SVG/1.1/DTD/svg11.dtd">
<svg version="1.1" xmlns="http://www.w3.org/2000/svg" xmlns:xlink="http://www.w3.org/1999/xlink" x="0px" y="0px" viewBox="0 0 256 256" enable-background="new 0 0 256 256" xml:space="preserve">
<metadata> Svg Vector Icons : http://www.onlinewebfonts.com/icon </metadata>
<g><g><path fill="#000000" d="M77.5,184c-2.8,0-5.6-1-7.8-3L10,128l63-56c4.9-4.3,12.3-3.9,16.6,1c4.3,4.9,3.9,12.3-1,16.7L45.5,128l39.8,35.4c4.9,4.3,5.3,11.8,1,16.7C84,182.7,80.8,184,77.5,184z M183,184l63-56L186.3,75c-4.9-4.3-12.3-3.9-16.6,1c-4.3,4.9-3.9,12.3,1,16.7l39.8,35.4l-43.2,38.4c-4.9,4.3-5.3,11.8-1,16.7c2.3,2.6,5.6,4,8.8,4C178,187,180.8,186,183,184L183,184z M127.8,200.7l23.6-141.5c1.1-6.4-3.3-12.5-9.7-13.6c-6.5-1.1-12.5,3.3-13.6,9.7l-23.6,141.5c-1.1,6.4,3.3,12.5,9.7,13.6c0.7,0.1,1.3,0.1,2,0.1C121.9,210.6,126.9,206.5,127.8,200.7z"/></g></g>
</svg>